<svg xmlns="http://www.w3.org/2000/svg" xmlns:xlink="http://www.w3.org/1999/xlink" contentStyleType="text/css" height="404px" preserveAspectRatio="none" style="width:1078px;height:404px;background:#FFFFFF;" version="1.1" viewBox="0 0 1078 404" width="1078px" zoomAndPan="magnify"><title>Component Diagram - Smart City Management System</title><defs/><g><text fill="#000000" font-family="Segoe UI" font-size="22" font-weight="bold" lengthAdjust="spacing" textLength="569.4648" x="249.7676" y="38.7402">Component Diagram - Smart City Management System</text><!--cluster User Interface Layer--><g id="cluster_User Interface Layer"><path d="M583,61.2617 L695.4707,61.2617 A4.5,4.5 0 0 1 698.4707,64.2617 L705.4707,83.2227 L826,83.2227 A3,3 0 0 1 829,86.2227 L829,154.2617 A3,3 0 0 1 826,157.2617 L583,157.2617 A3,3 0 0 1 580,154.2617 L580,64.2617 A3,3 0 0 1 583,61.2617 " fill="#FFFFFF" style="stroke:#000000;stroke-width:1.0;"/><line style="stroke:#000000;stroke-width:1.0;" x1="580" x2="705.4707" y1="83.2227" y2="83.2227"/><text fill="#000000" font-family="Segoe UI" font-size="12" font-weight="bold" lengthAdjust="spacing" textLength="112.4707" x="584" y="76.2109">User Interface Layer</text></g><!--cluster Management Modules--><g id="cluster_Management Modules"><path d="M14,181.2617 L140.9961,181.2617 A4.5,4.5 0 0 1 143.9961,184.2617 L150.9961,203.2227 L1068,203.2227 A3,3 0 0 1 1071,206.2227 L1071,274.2617 A3,3 0 0 1 1068,277.2617 L14,277.2617 A3,3 0 0 1 11,274.2617 L11,184.2617 A3,3 0 0 1 14,181.2617 " fill="#FFFFFF" style="stroke:#000000;stroke-width:1.0;"/><line style="stroke:#000000;stroke-width:1.0;" x1="11" x2="150.9961" y1="203.2227" y2="203.2227"/><text fill="#000000" font-family="Segoe UI" font-size="12" font-weight="bold" lengthAdjust="spacing" textLength="126.9961" x="15" y="196.2109">Management Modules</text></g><!--cluster Services & Database--><g id="cluster_Services &amp; Database"><path d="M609,301.2617 L723.3574,301.2617 A4.5,4.5 0 0 1 726.3574,304.2617 L733.3574,323.2227 L883,323.2227 A3,3 0 0 1 886,326.2227 L886,394.2617 A3,3 0 0 1 883,397.2617 L609,397.2617 A3,3 0 0 1 606,394.2617 L606,304.2617 A3,3 0 0 1 609,301.2617 " fill="#FFFFFF" style="stroke:#000000;stroke-width:1.0;"/><line style="stroke:#000000;stroke-width:1.0;" x1="606" x2="733.3574" y1="323.2227" y2="323.2227"/><text fill="#000000" font-family="Segoe UI" font-size="12" font-weight="bold" lengthAdjust="spacing" textLength="114.3574" x="610" y="316.2109">Services &amp; Database</text></g><!--entity citizenUI--><g id="elem_citizenUI"><rect fill="#FFFFFF" height="45.9609" rx="3" ry="3" style="stroke:#000000;stroke-width:1.0;" width="90.5254" x="721.5" y="95.2617"/><rect fill="#FFFFFF" height="10" style="stroke:#000000;stroke-width:1.0;" width="15" x="792.0254" y="100.2617"/><rect fill="#FFFFFF" height="2" style="stroke:#000000;stroke-width:1.0;" width="4" x="790.0254" y="102.2617"/><rect fill="#FFFFFF" height="2" style="stroke:#000000;stroke-width:1.0;" width="4" x="790.0254" y="106.2617"/><text fill="#000000" font-family="Segoe UI" font-size="12" lengthAdjust="spacing" textLength="50.5254" x="736.5" y="128.2109">Citizen UI</text></g><!--entity adminUI--><g id="elem_adminUI"><rect fill="#FFFFFF" height="45.9609" rx="3" ry="3" style="stroke:#000000;stroke-width:1.0;" width="89.5645" x="596" y="95.2617"/><rect fill="#FFFFFF" height="10" style="stroke:#000000;stroke-width:1.0;" width="15" x="665.5645" y="100.2617"/><rect fill="#FFFFFF" height="2" style="stroke:#000000;stroke-width:1.0;" width="4" x="663.5645" y="102.2617"/><rect fill="#FFFFFF" height="2" style="stroke:#000000;stroke-width:1.0;" width="4" x="663.5645" y="106.2617"/><text fill="#000000" font-family="Segoe UI" font-size="12" lengthAdjust="spacing" textLength="49.5645" x="611" y="128.2109">Admin UI</text></g><!--entity citizenSvc--><g id="elem_citizenSvc"><rect fill="#FFFFFF" height="45.9609" rx="3" ry="3" style="stroke:#000000;stroke-width:1.0;" width="121.4746" x="933.5" y="215.2617"/><rect fill="#FFFFFF" height="10" style="stroke:#000000;stroke-width:1.0;" width="15" x="1034.9746" y="220.2617"/><rect fill="#FFFFFF" height="2" style="stroke:#000000;stroke-width:1.0;" width="4" x="1032.9746" y="222.2617"/><rect fill="#FFFFFF" height="2" style="stroke:#000000;stroke-width:1.0;" width="4" x="1032.9746" y="226.2617"/><text fill="#000000" font-family="Segoe UI" font-size="12" lengthAdjust="spacing" textLength="81.4746" x="948.5" y="248.2109">Citizen Services</text></g><!--entity waterMgmt--><g id="elem_waterMgmt"><rect fill="#FFFFFF" height="45.9609" rx="3" ry="3" style="stroke:#000000;stroke-width:1.0;" width="145.7031" x="27" y="215.2617"/><rect fill="#FFFFFF" height="10" style="stroke:#000000;stroke-width:1.0;" width="15" x="152.7031" y="220.2617"/><rect fill="#FFFFFF" height="2" style="stroke:#000000;stroke-width:1.0;" width="4" x="150.7031" y="222.2617"/><rect fill="#FFFFFF" height="2" style="stroke:#000000;stroke-width:1.0;" width="4" x="150.7031" y="226.2617"/><text fill="#000000" font-family="Segoe UI" font-size="12" lengthAdjust="spacing" textLength="105.7031" x="42" y="248.2109">Water Management</text></g><!--entity elecMgmt--><g id="elem_elecMgmt"><rect fill="#FFFFFF" height="45.9609" rx="3" ry="3" style="stroke:#000000;stroke-width:1.0;" width="164.1367" x="389" y="215.2617"/><rect fill="#FFFFFF" height="10" style="stroke:#000000;stroke-width:1.0;" width="15" x="533.1367" y="220.2617"/><rect fill="#FFFFFF" height="2" style="stroke:#000000;stroke-width:1.0;" width="4" x="531.1367" y="222.2617"/><rect fill="#FFFFFF" height="2" style="stroke:#000000;stroke-width:1.0;" width="4" x="531.1367" y="226.2617"/><text fill="#000000" font-family="Segoe UI" font-size="12" lengthAdjust="spacing" textLength="124.1367" x="404" y="248.2109">Electricity Management</text></g><!--entity complaintMgmt--><g id="elem_complaintMgmt"><rect fill="#FFFFFF" height="45.9609" rx="3" ry="3" style="stroke:#000000;stroke-width:1.0;" width="168.502" x="729.5" y="215.2617"/><rect fill="#FFFFFF" height="10" style="stroke:#000000;stroke-width:1.0;" width="15" x="878.002" y="220.2617"/><rect fill="#FFFFFF" height="2" style="stroke:#000000;stroke-width:1.0;" width="4" x="876.002" y="222.2617"/><rect fill="#FFFFFF" height="2" style="stroke:#000000;stroke-width:1.0;" width="4" x="876.002" y="226.2617"/><text fill="#000000" font-family="Segoe UI" font-size="12" lengthAdjust="spacing" textLength="128.502" x="744.5" y="248.2109">Complaint Management</text></g><!--entity trafficMgmt--><g id="elem_trafficMgmt"><rect fill="#FFFFFF" height="45.9609" rx="3" ry="3" style="stroke:#000000;stroke-width:1.0;" width="146.4004" x="208" y="215.2617"/><rect fill="#FFFFFF" height="10" style="stroke:#000000;stroke-width:1.0;" width="15" x="334.4004" y="220.2617"/><rect fill="#FFFFFF" height="2" style="stroke:#000000;stroke-width:1.0;" width="4" x="332.4004" y="222.2617"/><rect fill="#FFFFFF" height="2" style="stroke:#000000;stroke-width:1.0;" width="4" x="332.4004" y="226.2617"/><text fill="#000000" font-family="Segoe UI" font-size="12" lengthAdjust="spacing" textLength="106.4004" x="223" y="248.2109">Traffic Management</text></g><!--entity propTax--><g id="elem_propTax"><rect fill="#FFFFFF" height="45.9609" rx="3" ry="3" style="stroke:#000000;stroke-width:1.0;" width="106.4863" x="588" y="215.2617"/><rect fill="#FFFFFF" height="10" style="stroke:#000000;stroke-width:1.0;" width="15" x="674.4863" y="220.2617"/><rect fill="#FFFFFF" height="2" style="stroke:#000000;stroke-width:1.0;" width="4" x="672.4863" y="222.2617"/><rect fill="#FFFFFF" height="2" style="stroke:#000000;stroke-width:1.0;" width="4" x="672.4863" y="226.2617"/><text fill="#000000" font-family="Segoe UI" font-size="12" lengthAdjust="spacing" textLength="66.4863" x="603" y="248.2109">Property Tax</text></g><!--entity notifSvc--><g id="elem_notifSvc"><rect fill="#FFFFFF" height="45.9609" rx="3" ry="3" style="stroke:#000000;stroke-width:1.0;" width="142.668" x="726.5" y="335.2617"/><rect fill="#FFFFFF" height="10" style="stroke:#000000;stroke-width:1.0;" width="15" x="849.168" y="340.2617"/><rect fill="#FFFFFF" height="2" style="stroke:#000000;stroke-width:1.0;" width="4" x="847.168" y="342.2617"/><rect fill="#FFFFFF" height="2" style="stroke:#000000;stroke-width:1.0;" width="4" x="847.168" y="346.2617"/><text fill="#000000" font-family="Segoe UI" font-size="12" lengthAdjust="spacing" textLength="102.668" x="741.5" y="368.2109">Notification Service</text></g><!--entity db--><g id="elem_db"><path d="M622.5,345.7617 C622.5,335.7617 657.1094,335.7617 657.1094,335.7617 C657.1094,335.7617 691.7188,335.7617 691.7188,345.7617 L691.7188,370.7227 C691.7188,380.7227 657.1094,380.7227 657.1094,380.7227 C657.1094,380.7227 622.5,380.7227 622.5,370.7227 L622.5,345.7617 " fill="#FFFFFF" style="stroke:#000000;stroke-width:1.0;"/><path d="M622.5,345.7617 C622.5,355.7617 657.1094,355.7617 657.1094,355.7617 C657.1094,355.7617 691.7188,355.7617 691.7188,345.7617 " fill="none" style="stroke:#000000;stroke-width:1.0;"/><text fill="#000000" font-family="Segoe UI" font-size="12" lengthAdjust="spacing" textLength="49.2188" x="632.5" y="372.7109">Database</text></g><!--link citizenUI to citizenSvc--><g id="link_citizenUI_citizenSvc"><path d="M812.75,131.4317 C843.16,140.5617 883.36,154.6817 916,173.2617 C936.25,184.7817 952.0771,197.5682 966.8771,211.0682 " fill="none" id="citizenUI-to-citizenSvc" style="stroke:#000000;stroke-width:1.0;stroke-dasharray:7.0,7.0;"/><polygon fill="#000000" points="971.31,215.1117,967.3564,206.0913,967.616,211.7421,961.9651,212.0017,971.31,215.1117" style="stroke:#000000;stroke-width:1.0;"/></g><!--link citizenUI to complaintMgmt--><g id="link_citizenUI_complaintMgmt"><path d="M775.84,141.4517 C784.24,162.5517 794.5894,188.5278 802.9794,209.5878 " fill="none" id="citizenUI-to-complaintMgmt" style="stroke:#000000;stroke-width:1.0;stroke-dasharray:7.0,7.0;"/><polygon fill="#000000" points="805.2,215.1617,805.5851,205.3204,803.3495,210.5168,798.1532,208.2812,805.2,215.1617" style="stroke:#000000;stroke-width:1.0;"/></g><!--link citizenUI to propTax--><g id="link_citizenUI_propTax"><path d="M743.3,141.4517 C720.77,162.5517 691.4596,190.0006 668.9696,211.0606 " fill="none" id="citizenUI-to-propTax" style="stroke:#000000;stroke-width:1.0;stroke-dasharray:7.0,7.0;"/><polygon fill="#000000" points="664.59,215.1617,673.8935,211.9298,668.2397,211.7441,668.4253,206.0903,664.59,215.1617" style="stroke:#000000;stroke-width:1.0;"/></g><!--link adminUI to citizenSvc--><g id="link_adminUI_citizenSvc"><path d="M664.19,141.3417 C675.33,150.5217 689.42,160.2017 704,165.2617 C748.54,180.7217 871.92,156.5517 916,173.2617 C938.93,181.9517 955.9169,195.9901 970.3969,210.8101 " fill="none" id="adminUI-to-citizenSvc" style="stroke:#000000;stroke-width:1.0;stroke-dasharray:7.0,7.0;"/><polygon fill="#000000" points="974.59,215.1017,971.1614,205.8689,971.0957,211.5254,965.4393,211.4598,974.59,215.1017" style="stroke:#000000;stroke-width:1.0;"/></g><!--link adminUI to complaintMgmt--><g id="link_adminUI_complaintMgmt"><path d="M670.58,141.3417 C681.05,149.0317 692.97,157.6317 704,165.2617 C728.78,182.4017 752.2035,197.7664 773.9735,211.7664 " fill="none" id="adminUI-to-complaintMgmt" style="stroke:#000000;stroke-width:1.0;stroke-dasharray:7.0,7.0;"/><polygon fill="#000000" points="779.02,215.0117,773.6138,206.7793,774.8145,212.3072,769.2866,213.508,779.02,215.0117" style="stroke:#000000;stroke-width:1.0;"/></g><!--link adminUI to waterMgmt--><g id="link_adminUI_waterMgmt"><path d="M596,121.8617 C497.22,128.0217 264.38,145.1217 191,173.2617 C166.11,182.8017 146.2165,196.8172 128.9265,211.2472 " fill="none" id="adminUI-to-waterMgmt" style="stroke:#000000;stroke-width:1.0;stroke-dasharray:7.0,7.0;"/><polygon fill="#000000" points="124.32,215.0917,133.7927,212.3959,128.1587,211.888,128.6667,206.254,124.32,215.0917" style="stroke:#000000;stroke-width:1.0;"/></g><!--link adminUI to elecMgmt--><g id="link_adminUI_elecMgmt"><path d="M609.02,141.4517 C578.63,162.5517 538.1095,190.6811 507.7595,211.7411 " fill="none" id="adminUI-to-elecMgmt" style="stroke:#000000;stroke-width:1.0;stroke-dasharray:7.0,7.0;"/><polygon fill="#000000" points="502.83,215.1617,512.5046,213.3172,506.9379,212.3112,507.9438,206.7445,502.83,215.1617" style="stroke:#000000;stroke-width:1.0;"/></g><!--link adminUI to trafficMgmt--><g id="link_adminUI_trafficMgmt"><path d="M596,122.5917 C541.17,127.9117 446.63,141.2217 372,173.2617 C347.86,183.6217 328.3539,197.2671 310.9939,211.3171 " fill="none" id="adminUI-to-trafficMgmt" style="stroke:#000000;stroke-width:1.0;stroke-dasharray:7.0,7.0;"/><polygon fill="#000000" points="306.33,215.0917,315.8423,212.539,310.2166,211.9462,310.8094,206.3205,306.33,215.0917" style="stroke:#000000;stroke-width:1.0;"/></g><!--link adminUI to propTax--><g id="link_adminUI_propTax"><path d="M641,141.4517 C641,162.5517 641,188.1017 641,209.1617 " fill="none" id="adminUI-to-propTax" style="stroke:#000000;stroke-width:1.0;stroke-dasharray:7.0,7.0;"/><polygon fill="#000000" points="641,215.1617,645,206.1617,641,210.1617,637,206.1617,641,215.1617" style="stroke:#000000;stroke-width:1.0;"/></g><!--link complaintMgmt to notifSvc--><g id="link_complaintMgmt_notifSvc"><path d="M810.99,261.4517 C808.13,282.5517 804.6546,308.1559 801.8046,329.2159 " fill="none" id="complaintMgmt-to-notifSvc" style="stroke:#000000;stroke-width:1.0;stroke-dasharray:7.0,7.0;"/><polygon fill="#000000" points="801,335.1617,806.1708,326.7794,801.6705,330.2069,798.2431,325.7066,801,335.1617" style="stroke:#000000;stroke-width:1.0;"/></g><!--link citizenSvc to notifSvc--><g id="link_citizenSvc_notifSvc"><path d="M957.13,261.4517 C922.09,282.5517 874.8307,311.0076 839.8407,332.0676 " fill="none" id="citizenSvc-to-notifSvc" style="stroke:#000000;stroke-width:1.0;stroke-dasharray:7.0,7.0;"/><polygon fill="#000000" points="834.7,335.1617,844.4737,333.9477,838.9839,332.5833,840.3483,327.0935,834.7,335.1617" style="stroke:#000000;stroke-width:1.0;"/></g><!--link citizenSvc to db--><g id="link_citizenSvc_db"><path d="M964.5,261.3617 C950.54,270.5317 933.2,280.2117 916,285.2617 C893.92,291.7517 729.59,282.9717 709,293.2617 C690.94,302.2917 680.087,315.6368 671.207,330.4368 " fill="none" id="citizenSvc-to-db" style="stroke:#000000;stroke-width:1.0;stroke-dasharray:7.0,7.0;"/><polygon fill="#000000" points="668.12,335.5817,676.1804,329.9223,670.6925,331.2943,669.3205,325.8063,668.12,335.5817" style="stroke:#000000;stroke-width:1.0;"/></g><!--link complaintMgmt to db--><g id="link_complaintMgmt_db"><path d="M760.67,261.3817 C743.25,269.9417 724.44,280.7317 709,293.2617 C694.1,305.3517 684.0364,317.4315 674.4964,330.8515 " fill="none" id="complaintMgmt-to-db" style="stroke:#000000;stroke-width:1.0;stroke-dasharray:7.0,7.0;"/><polygon fill="#000000" points="671.02,335.7417,679.4948,330.7239,673.917,331.6665,672.9744,326.0887,671.02,335.7417" style="stroke:#000000;stroke-width:1.0;"/></g><!--link waterMgmt to db--><g id="link_waterMgmt_db"><path d="M136.94,261.2717 C153.05,269.9817 172.46,279.3117 191,285.2617 C346.89,335.3117 537.6299,350.7573 616.2499,355.2773 " fill="none" id="waterMgmt-to-db" style="stroke:#000000;stroke-width:1.0;stroke-dasharray:7.0,7.0;"/><polygon fill="#000000" points="622.24,355.6217,613.4844,351.1117,617.2482,355.3347,613.0252,359.0986,622.24,355.6217" style="stroke:#000000;stroke-width:1.0;"/></g><!--link elecMgmt to db--><g id="link_elecMgmt_db"><path d="M505.99,261.4517 C539.45,282.6817 584.5334,311.2878 617.7334,332.3478 " fill="none" id="elecMgmt-to-db" style="stroke:#000000;stroke-width:1.0;stroke-dasharray:7.0,7.0;"/><polygon fill="#000000" points="622.8,335.5617,617.3427,327.3631,618.5778,332.8834,613.0575,334.1185,622.8,335.5617" style="stroke:#000000;stroke-width:1.0;"/></g><!--link trafficMgmt to db--><g id="link_trafficMgmt_db"><path d="M320.01,261.3617 C335.8,269.6717 354.42,278.6917 372,285.2617 C459.72,318.0517 562.2243,339.7179 616.5843,349.9879 " fill="none" id="trafficMgmt-to-db" style="stroke:#000000;stroke-width:1.0;stroke-dasharray:7.0,7.0;"/><polygon fill="#000000" points="622.48,351.1017,614.379,345.5005,617.5669,350.1735,612.8939,353.3614,622.48,351.1017" style="stroke:#000000;stroke-width:1.0;"/></g><!--link propTax to db--><g id="link_propTax_db"><path d="M644.01,261.4517 C646.89,282.6817 650.3926,308.5563 653.2526,329.6163 " fill="none" id="propTax-to-db" style="stroke:#000000;stroke-width:1.0;stroke-dasharray:7.0,7.0;"/><polygon fill="#000000" points="654.06,335.5617,656.8125,326.1053,653.3872,330.6072,648.8853,327.1818,654.06,335.5617" style="stroke:#000000;stroke-width:1.0;"/></g><!--SRC=[RL71JeGm4Btp5IC7FMcY1uycnjLa4zUOuCQ3yJ2M0HkX9UsiwshyTmVOGc7bHDzxVNtpveZVgIPeAjGcyH_QDEYm1l-EkTrgKqA1bQU8oQd0JSLtrl03oiqqez8Ih9Vf_w9CVnESNqIainkJA-iCERXC4jPS4TpOkh663CD2OzdAJY6hqJ7SQDx12WsM4bJuREUPwYHfK7q81kdQYz7ICBa25S4zxiYby9E0V2zoMm8OoVSAw47rn_MoPw_pMWySjWTXVYFlwDsLpJSL-GFdZDodLkHZ_-nJzQ9db5XH-awqRS5LMNElkQr8iTDgEcUd9A56OTjHkoUUorGWHksJmwBGQgxa7XvrZyusvEJb9_pg58q0yZzf8Om8nx10nZVqDDJmO5cB8xAsGnUTaMc9K4I-lmRfQ22Q_ArzvmGoBGCGBAWXavDHExYhx3OPjWLdPrTnjpDYClwK2-Ca- -tEdIRmn2Tcnet5wB2T68mRZl4XoEILZXgQ6dDDyJaXjHsw23Z434186CvHk03jSuNZ7m00]--></g></svg>