<svg xmlns="http://www.w3.org/2000/svg" xmlns:xlink="http://www.w3.org/1999/xlink" contentStyleType="text/css" height="368px" preserveAspectRatio="none" style="width:608px;height:368px;background:#FFFFFF;" version="1.1" viewBox="0 0 608 368" width="608px" zoomAndPan="magnify"><title>Deployment Diagram - Smart City Management System</title><defs/><g><text fill="#000000" font-family="Segoe UI" font-size="22" font-weight="bold" lengthAdjust="spacing" textLength="575.1904" x="15" y="38.7402">Deployment Diagram - Smart City Management System</text><!--entity citizenDev--><g id="elem_citizenDev"><polygon fill="#FFFFFF" points="102.0249,71.2617,112.0249,61.2617,216.2749,61.2617,216.2749,97.2227,206.2749,107.2227,102.0249,107.2227,102.0249,71.2617" style="stroke:#000000;stroke-width:1.0;"/><line style="stroke:#000000;stroke-width:1.0;" x1="206.2749" x2="216.2749" y1="71.2617" y2="61.2617"/><line style="stroke:#000000;stroke-width:1.0;" x1="102.0249" x2="206.2749" y1="71.2617" y2="71.2617"/><line style="stroke:#000000;stroke-width:1.0;" x1="206.2749" x2="206.2749" y1="71.2617" y2="107.2227"/><text fill="#000000" font-family="Segoe UI" font-size="12" lengthAdjust="spacing" textLength="35.8008" x="117.0249" y="94.2109">Citizen</text><text fill="#000000" font-family="Segoe UI" font-size="12" lengthAdjust="spacing" textLength="3.2871" x="152.8257" y="94.2109">&#160;</text><text fill="#000000" font-family="Segoe UI" font-size="12" lengthAdjust="spacing" textLength="35.1621" x="156.1128" y="94.2109">Device</text></g><!--entity adminDev--><g id="elem_adminDev"><polygon fill="#FFFFFF" points="251.5249,71.2617,261.5249,61.2617,364.814,61.2617,364.814,97.2227,354.814,107.2227,251.5249,107.2227,251.5249,71.2617" style="stroke:#000000;stroke-width:1.0;"/><line style="stroke:#000000;stroke-width:1.0;" x1="354.814" x2="364.814" y1="71.2617" y2="61.2617"/><line style="stroke:#000000;stroke-width:1.0;" x1="251.5249" x2="354.814" y1="71.2617" y2="71.2617"/><line style="stroke:#000000;stroke-width:1.0;" x1="354.814" x2="354.814" y1="71.2617" y2="107.2227"/><text fill="#000000" font-family="Segoe UI" font-size="12" lengthAdjust="spacing" textLength="34.8398" x="266.5249" y="94.2109">Admin</text><text fill="#000000" font-family="Segoe UI" font-size="12" lengthAdjust="spacing" textLength="3.2871" x="301.3647" y="94.2109">&#160;</text><text fill="#000000" font-family="Segoe UI" font-size="12" lengthAdjust="spacing" textLength="35.1621" x="304.6519" y="94.2109">Device</text></g><!--entity sensors--><g id="elem_sensors"><polygon fill="#FFFFFF" points="399.5249,71.2617,409.5249,61.2617,516.1655,61.2617,516.1655,97.2227,506.1655,107.2227,399.5249,107.2227,399.5249,71.2617" style="stroke:#000000;stroke-width:1.0;"/><line style="stroke:#000000;stroke-width:1.0;" x1="506.1655" x2="516.1655" y1="71.2617" y2="61.2617"/><line style="stroke:#000000;stroke-width:1.0;" x1="399.5249" x2="506.1655" y1="71.2617" y2="71.2617"/><line style="stroke:#000000;stroke-width:1.0;" x1="506.1655" x2="506.1655" y1="71.2617" y2="107.2227"/><text fill="#000000" font-family="Segoe UI" font-size="12" lengthAdjust="spacing" textLength="32.5254" x="414.5249" y="94.2109">Traffic</text><text fill="#000000" font-family="Segoe UI" font-size="12" lengthAdjust="spacing" textLength="3.2871" x="447.0503" y="94.2109">&#160;</text><text fill="#000000" font-family="Segoe UI" font-size="12" lengthAdjust="spacing" textLength="40.8281" x="450.3374" y="94.2109">Sensors</text></g><!--entity appServer--><g id="elem_appServer"><polygon fill="#FFFFFF" points="240.0249,177.2617,250.0249,167.2617,376.4351,167.2617,376.4351,219.1836,366.4351,229.1836,240.0249,229.1836,240.0249,177.2617" style="stroke:#000000;stroke-width:1.0;"/><line style="stroke:#000000;stroke-width:1.0;" x1="366.4351" x2="376.4351" y1="177.2617" y2="167.2617"/><line style="stroke:#000000;stroke-width:1.0;" x1="240.0249" x2="366.4351" y1="177.2617" y2="177.2617"/><line style="stroke:#000000;stroke-width:1.0;" x1="366.4351" x2="366.4351" y1="177.2617" y2="229.1836"/><text fill="#000000" font-family="Segoe UI" font-size="12" lengthAdjust="spacing" textLength="60.1055" x="255.0249" y="200.2109">Application</text><text fill="#000000" font-family="Segoe UI" font-size="12" lengthAdjust="spacing" textLength="3.2871" x="315.1304" y="200.2109">&#160;</text><text fill="#000000" font-family="Segoe UI" font-size="12" lengthAdjust="spacing" textLength="33.0176" x="318.4175" y="200.2109">Server</text><text fill="#000000" font-family="Segoe UI" font-size="12" lengthAdjust="spacing" textLength="37.9863" x="255.0249" y="216.1719">(Spring</text><text fill="#000000" font-family="Segoe UI" font-size="12" lengthAdjust="spacing" textLength="3.2871" x="293.0112" y="216.1719">&#160;</text><text fill="#000000" font-family="Segoe UI" font-size="12" lengthAdjust="spacing" textLength="28.6289" x="296.2983" y="216.1719">Boot)</text></g><!--entity dbServer--><g id="elem_dbServer"><polygon fill="#FFFFFF" points="245.0249,299.2617,255.0249,289.2617,370.5483,289.2617,370.5483,341.1836,360.5483,351.1836,245.0249,351.1836,245.0249,299.2617" style="stroke:#000000;stroke-width:1.0;"/><line style="stroke:#000000;stroke-width:1.0;" x1="360.5483" x2="370.5483" y1="299.2617" y2="289.2617"/><line style="stroke:#000000;stroke-width:1.0;" x1="245.0249" x2="360.5483" y1="299.2617" y2="299.2617"/><line style="stroke:#000000;stroke-width:1.0;" x1="360.5483" x2="360.5483" y1="299.2617" y2="351.1836"/><text fill="#000000" font-family="Segoe UI" font-size="12" lengthAdjust="spacing" textLength="49.2188" x="260.0249" y="322.2109">Database</text><text fill="#000000" font-family="Segoe UI" font-size="12" lengthAdjust="spacing" textLength="3.2871" x="309.2437" y="322.2109">&#160;</text><text fill="#000000" font-family="Segoe UI" font-size="12" lengthAdjust="spacing" textLength="33.0176" x="312.5308" y="322.2109">Server</text><text fill="#000000" font-family="Segoe UI" font-size="12" lengthAdjust="spacing" textLength="44.8945" x="260.0249" y="338.1719">(MySQL)</text></g><!--link citizenDev to appServer--><g id="link_citizenDev_appServer"><path d="M188.4649,107.3917 C211.1949,124.4717 238.0879,144.6977 263.1379,163.5177 " fill="none" id="citizenDev-to-appServer" style="stroke:#000000;stroke-width:1.0;"/><polygon fill="#000000" points="267.9349,167.1217,263.142,158.5177,263.9374,164.1184,258.3367,164.9138,267.9349,167.1217" style="stroke:#000000;stroke-width:1.0;"/></g><!--link adminDev to appServer--><g id="link_adminDev_appServer"><path d="M308.0249,107.3917 C308.0249,124.4717 308.0249,142.3017 308.0249,161.1217 " fill="none" id="adminDev-to-appServer" style="stroke:#000000;stroke-width:1.0;"/><polygon fill="#000000" points="308.0249,167.1217,312.0249,158.1217,308.0249,162.1217,304.0249,158.1217,308.0249,167.1217" style="stroke:#000000;stroke-width:1.0;"/></g><!--link sensors to appServer--><g id="link_sensors_appServer"><path d="M428.3849,107.3917 C405.5049,124.4717 378.4136,144.7133 353.1936,163.5333 " fill="none" id="sensors-to-appServer" style="stroke:#000000;stroke-width:1.0;"/><polygon fill="#000000" points="348.3849,167.1217,357.9902,164.9449,352.3921,164.1314,353.2057,158.5333,348.3849,167.1217" style="stroke:#000000;stroke-width:1.0;"/></g><!--link appServer to dbServer--><g id="link_appServer_dbServer"><path d="M308.0249,229.5417 C308.0249,247.7317 308.0249,264.8017 308.0249,282.9917 " fill="none" id="appServer-to-dbServer" style="stroke:#000000;stroke-width:1.0;"/><polygon fill="#000000" points="308.0249,288.9917,312.0249,279.9917,308.0249,283.9917,304.0249,279.9917,308.0249,288.9917" style="stroke:#000000;stroke-width:1.0;"/></g><!--SRC=[RP0zJyCm48Pt_ueZ4mmTO614AaILa2WICcmir-IIdh3FbkqMXL-Fyz4cL6pM-ppttibNQK-Mm1jaKV6BnMD02t6FjVjcQQ514sb1QchmODB6INh5F5beQXt1ntFnlwJvX-3sRW63EqXTkI0Ku5wfnCaGbEIDwon9WfAnxRqLQ8iXmHEd3hOesDB0THSJMQN4rNbzfdc3v88ZLrG0HgZ6A2UJiwuj_p6m3sR-7h1fk09D4bs8WnB7zsdDsdl35IPsahLmfF0frzg7_eiUdKitOw_t8vocIaoumqZpoBRJRo-ZNEycLyq7mshri6WvtNaHJxTTfEhy7C2v_XS0]--></g></svg>