<svg xmlns="http://www.w3.org/2000/svg" xmlns:xlink="http://www.w3.org/1999/xlink" contentStyleType="text/css" height="885px" preserveAspectRatio="none" style="width:403px;height:885px;background:#FFFFFF;" version="1.1" viewBox="0 0 403 885" width="403px" zoomAndPan="magnify"><title>State Machine Diagram - Complaint</title><defs/><g><text fill="#000000" font-family="Segoe UI" font-size="22" font-weight="bold" lengthAdjust="spacing" textLength="370.3906" x="15" y="38.7402">State Machine Diagram - Complaint</text><ellipse cx="229.4023" cy="71.2617" fill="#FFFFFF" rx="10" ry="10" style="stroke:#000000;stroke-width:1.0;"/><g id="New"><rect fill="#FFFFFF" height="50" rx="4" ry="4" style="stroke:#000000;stroke-width:1.0;" width="50" x="204.4023" y="142.2617"/><line style="stroke:#000000;stroke-width:1.0;" x1="204.4023" x2="254.4023" y1="168.2227" y2="168.2227"/><text fill="#000000" font-family="Segoe UI" font-size="12" lengthAdjust="spacing" textLength="23.9238" x="217.4404" y="160.2109">New</text></g><g id="Submitted"><rect fill="#FFFFFF" height="50" rx="4" ry="4" style="stroke:#000000;stroke-width:1.0;" width="74.9375" x="191.9023" y="253.2617"/><line style="stroke:#000000;stroke-width:1.0;" x1="191.9023" x2="266.8398" y1="279.2227" y2="279.2227"/><text fill="#000000" font-family="Segoe UI" font-size="12" lengthAdjust="spacing" textLength="54.9375" x="201.9023" y="271.2109">Submitted</text></g><g id="Assigned"><rect fill="#FFFFFF" height="50" rx="4" ry="4" style="stroke:#000000;stroke-width:1.0;" width="68.0293" x="130.4023" y="364.2617"/><line style="stroke:#000000;stroke-width:1.0;" x1="130.4023" x2="198.4316" y1="390.2227" y2="390.2227"/><text fill="#000000" font-family="Segoe UI" font-size="12" lengthAdjust="spacing" textLength="48.0293" x="140.4023" y="382.2109">Assigned</text></g><g id="InProgress"><rect fill="#FFFFFF" height="50" rx="4" ry="4" style="stroke:#000000;stroke-width:1.0;" width="75.6055" x="124.4023" y="524.2617"/><line style="stroke:#000000;stroke-width:1.0;" x1="124.4023" x2="200.0078" y1="550.2227" y2="550.2227"/><text fill="#000000" font-family="Segoe UI" font-size="12" lengthAdjust="spacing" textLength="55.6055" x="134.4023" y="542.2109">InProgress</text></g><g id="Resolved"><rect fill="#FFFFFF" height="50" rx="4" ry="4" style="stroke:#000000;stroke-width:1.0;" width="67.5723" x="133.4023" y="635.2617"/><line style="stroke:#000000;stroke-width:1.0;" x1="133.4023" x2="200.9746" y1="661.2227" y2="661.2227"/><text fill="#000000" font-family="Segoe UI" font-size="12" lengthAdjust="spacing" textLength="47.5723" x="143.4023" y="653.2109">Resolved</text></g><g id="Closed"><rect fill="#FFFFFF" height="50" rx="4" ry="4" style="stroke:#000000;stroke-width:1.0;" width="55.8008" x="145.4023" y="746.2617"/><line style="stroke:#000000;stroke-width:1.0;" x1="145.4023" x2="201.2031" y1="772.2227" y2="772.2227"/><text fill="#000000" font-family="Segoe UI" font-size="12" lengthAdjust="spacing" textLength="35.8008" x="155.4023" y="764.2109">Closed</text></g><ellipse cx="214.4023" cy="868.2617" fill="none" rx="11" ry="11" style="stroke:#000000;stroke-width:1.0;"/><ellipse cx="214.4023" cy="868.2617" fill="#FFFFFF" rx="6" ry="6" style="stroke:#000000;stroke-width:1.0;"/><g id="Rejected"><rect fill="#FFFFFF" height="50" rx="4" ry="4" style="stroke:#000000;stroke-width:1.0;" width="65.5859" x="224.4023" y="444.2617"/><line style="stroke:#000000;stroke-width:1.0;" x1="224.4023" x2="289.9883" y1="470.2227" y2="470.2227"/><text fill="#000000" font-family="Segoe UI" font-size="12" lengthAdjust="spacing" textLength="45.5859" x="234.4023" y="462.2109">Rejected</text></g><!--link *start* to New--><g id="link_*start*_New"><path d="M229.4023,81.2717 C229.4023,95.1517 229.4023,116.2317 229.4023,136.1017 " fill="none" id="*start*-to-New" style="stroke:#000000;stroke-width:1.0;"/><polygon fill="#000000" points="229.4023,142.1017,233.4023,133.1017,229.4023,137.1017,225.4023,133.1017,229.4023,142.1017" style="stroke:#000000;stroke-width:1.0;"/></g><!--link New to Submitted--><g id="link_New_Submitted"><path d="M229.4023,192.4517 C229.4023,210.5117 229.4023,229.0917 229.4023,247.1417 " fill="none" id="New-to-Submitted" style="stroke:#000000;stroke-width:1.0;"/><polygon fill="#000000" points="229.4023,253.1417,233.4023,244.1417,229.4023,248.1417,225.4023,244.1417,229.4023,253.1417" style="stroke:#000000;stroke-width:1.0;"/></g><!--link Submitted to Assigned--><g id="link_Submitted_Assigned"><path d="M214.9723,303.4517 C204.2023,321.5117 192.6246,340.938 181.8646,358.988 " fill="none" id="Submitted-to-Assigned" style="stroke:#000000;stroke-width:1.0;"/><polygon fill="#000000" points="178.7923,364.1417,186.8366,358.4593,181.3526,359.8469,179.9649,354.3629,178.7923,364.1417" style="stroke:#000000;stroke-width:1.0;"/></g><!--link Assigned to InProgress--><g id="link_Assigned_InProgress"><path d="M154.5423,414.3017 C151.2623,423.5117 148.0323,434.2117 146.4023,444.2617 C142.8423,466.2017 143.2123,472.2717 146.4023,494.2617 C147.8523,504.2317 148.909,509.2023 151.829,518.4123 " fill="none" id="Assigned-to-InProgress" style="stroke:#000000;stroke-width:1.0;"/><polygon fill="#000000" points="153.6423,524.1317,154.7353,514.3437,152.1312,519.3655,147.1094,516.7615,153.6423,524.1317" style="stroke:#000000;stroke-width:1.0;"/><text fill="#000000" font-family="Segoe UI" font-size="12" lengthAdjust="spacing" textLength="58.8926" x="147.4023" y="474.7109">In Progress</text></g><!--link InProgress to Resolved--><g id="link_InProgress_Resolved"><path d="M163.5123,574.4517 C164.3423,592.5117 165.2,611.0979 166.02,629.1479 " fill="none" id="InProgress-to-Resolved" style="stroke:#000000;stroke-width:1.0;"/><polygon fill="#000000" points="166.2923,635.1417,169.8798,625.9695,166.0654,630.1469,161.888,626.3325,166.2923,635.1417" style="stroke:#000000;stroke-width:1.0;"/></g><!--link Resolved to Closed--><g id="link_Resolved_Closed"><path d="M168.7323,685.4517 C169.7323,703.5117 170.7538,722.1007 171.7438,740.1507 " fill="none" id="Resolved-to-Closed" style="stroke:#000000;stroke-width:1.0;"/><polygon fill="#000000" points="172.0723,746.1417,175.5735,736.9362,171.7985,741.1492,167.5855,737.3743,172.0723,746.1417" style="stroke:#000000;stroke-width:1.0;"/></g><!--link Closed to *end*--><g id="link_Closed_*end*"><path d="M183.9623,796.7217 C192.5923,816.7417 201.9675,838.4317 208.0275,852.4917 " fill="none" id="Closed-to-*end*" style="stroke:#000000;stroke-width:1.0;"/><polygon fill="#000000" points="210.4023,858.0017,210.5134,848.1535,208.4233,853.4101,203.1667,851.32,210.4023,858.0017" style="stroke:#000000;stroke-width:1.0;"/></g><!--link Submitted to Rejected--><g id="link_Submitted_Rejected"><path d="M233.0023,303.5817 C238.3823,339.8717 247.5626,401.8666 252.9326,438.0966 " fill="none" id="Submitted-to-Rejected" style="stroke:#000000;stroke-width:1.0;"/><polygon fill="#000000" points="253.8123,444.0317,256.4496,434.5425,253.0793,439.0858,248.536,435.7155,253.8123,444.0317" style="stroke:#000000;stroke-width:1.0;"/></g><!--link Rejected to *end*--><g id="link_Rejected_*end*"><path d="M256.8223,494.4717 C256.2323,521.3017 255.4023,565.8717 255.4023,604.2617 C255.4023,604.2617 255.4023,604.2617 255.4023,772.2617 C255.4023,806.7517 235.8588,838.0802 224.3288,854.0202 " fill="none" id="Rejected-to-*end*" style="stroke:#000000;stroke-width:1.0;"/><polygon fill="#000000" points="220.8123,858.8817,229.3281,853.9338,223.7428,854.8305,222.8461,849.2451,220.8123,858.8817" style="stroke:#000000;stroke-width:1.0;"/></g><!--SRC=[ROunQmCn38Lt_merO-66PYeT2YMba24XvEWKEgXtYa-9JmwMhe7y-ZeE5uxImVZfU-yXFLX7FS4f88lJ8yi94_QW7RRnpE9XZq5fuhIqno7OHnHROsxEQlAHu7Cv-pzKyuNWQJunKnoaRM8IIl3idB45WjhG25ROT2m4xup-6grW4VjocpctU_o2gdg5DPrTVaNNmtVFPjIwkohyJPMzP3oAGfUoIT4dKeMNFC0ukObnpMr9O_Z9xL4KkWXHCxjzXUIBt9_5MpfGOwLw4_VWBm00]--></g></svg>